<?xml version="1.0" standalone="no"?>
<!DOCTYPE svg PUBLIC "-//W3C//DTD SVG 20010904//EN"
 "http://www.w3.org/TR/2001/REC-SVG-20010904/DTD/svg10.dtd">
<svg version="1.0" xmlns="http://www.w3.org/2000/svg"
 width="353.000000pt" height="353.000000pt" viewBox="0 0 353.000000 353.000000"
 preserveAspectRatio="xMidYMid meet">
<metadata>
Created by potrace 1.11, written by Peter Selinger 2001-2013
</metadata>
<g transform="translate(0.000000,353.000000) scale(0.100000,-0.100000)"
fill="#000000" stroke="none">
<path d="M2133 3277 c-48 -78 -104 -181 -103 -192 0 -3 -7 -20 -17 -38 -9 -17
-18 -34 -18 -37 -2 -12 -28 -86 -34 -95 -3 -5 -7 -14 -8 -20 -1 -5 -12 -46
-23 -90 -22 -81 -31 -241 -18 -300 4 -16 19 -70 33 -120 15 -49 27 -104 27
-121 0 -49 11 -58 39 -33 13 11 29 24 35 27 33 22 119 162 129 212 2 10 8 27
13 37 12 22 25 83 37 178 9 69 5 455 -5 455 -3 0 -6 12 -6 28 -2 36 -12 147
-14 147 -1 0 -3 8 -5 18 -2 11 -5 20 -7 22 -2 2 -27 -33 -55 -78z"/>
<path d="M1159 3299 c-4 -43 5 -160 16 -223 3 -17 8 -44 10 -61 2 -16 4 -30 5
-30 1 0 3 -9 5 -20 16 -85 51 -198 88 -285 8 -19 15 -39 15 -44 0 -5 4 -12 9
-15 4 -3 17 -23 28 -45 22 -43 116 -143 161 -172 46 -30 53 -36 110 -91 29
-29 55 -53 57 -53 13 0 31 104 29 165 -2 76 -2 78 -21 145 -7 25 -14 52 -16
61 -6 30 -75 161 -122 233 -60 90 -174 236 -185 236 -4 0 -8 4 -8 10 0 8 -36
49 -142 163 -23 24 -39 34 -39 26z"/>
<path d="M3015 2779 c-3 -4 -16 -9 -29 -13 -13 -3 -55 -20 -92 -38 -38 -17
-71 -32 -74 -32 -3 -1 -9 -4 -15 -8 -5 -3 -32 -18 -60 -33 -27 -15 -64 -38
-82 -51 -17 -13 -35 -24 -38 -24 -4 0 -12 -6 -20 -12 -7 -7 -28 -24 -47 -38
-82 -60 -185 -177 -221 -249 -20 -41 -37 -80 -37 -88 0 -7 -7 -29 -15 -49 -8
-19 -13 -35 -12 -37 1 -1 -13 -28 -31 -59 -17 -32 -32 -59 -32 -61 0 -10 81
-5 129 8 108 32 203 89 294 178 51 49 141 153 162 188 6 9 30 45 55 80 25 35
49 72 55 81 74 124 145 252 145 260 0 8 -31 5 -35 -3z"/>
<path d="M356 2658 c34 -59 225 -258 310 -323 68 -53 163 -115 174 -115 5 0
10 -4 10 -10 0 -5 4 -10 9 -10 5 0 22 -5 38 -12 15 -6 31 -11 36 -10 4 1 7 -2
7 -8 0 -5 8 -10 18 -10 10 0 22 -3 26 -7 7 -7 13 -8 94 -17 23 -3 47 -8 52
-11 6 -3 10 -2 10 2 0 5 19 8 43 6 92 -7 114 -10 154 -17 l42 -8 -9 32 c-5 17
-21 53 -36 78 -30 51 -134 162 -153 162 -6 0 -11 3 -11 8 0 4 -21 20 -47 37
-52 32 -163 87 -163 79 0 -2 -10 2 -22 10 -13 8 -25 15 -28 15 -3 0 -12 2 -20
5 -28 11 -185 57 -205 61 -11 2 -47 11 -80 20 -54 14 -84 20 -150 30 -11 2
-20 4 -20 5 0 1 -9 3 -19 5 -11 2 -31 6 -44 10 -18 4 -22 2 -16 -7z"/>
<path d="M889 1935 c-2 -2 -33 -6 -69 -9 -118 -9 -274 -54 -480 -136 -122 -49
-247 -108 -255 -119 -3 -5 9 -14 27 -20 56 -17 122 -34 148 -37 14 -1 36 -5
50 -8 130 -29 455 -26 538 5 12 5 22 6 22 3 0 -4 7 -1 15 6 8 7 15 10 15 6 0
-6 80 33 90 43 3 4 13 11 22 16 9 6 48 31 87 58 38 26 74 47 80 47 7 0 23 7
36 16 l24 16 -28 23 c-26 23 -112 62 -156 71 -11 3 -48 7 -83 9 -35 2 -67 7
-71 9 -5 3 -10 4 -12 1z"/>
<path d="M2808 1905 c-2 -1 -31 -6 -65 -9 -101 -11 -184 -42 -269 -101 -94
-65 -162 -105 -178 -105 -7 0 -17 -5 -24 -12 -9 -9 -4 -17 21 -36 116 -88 305
-104 562 -49 6 2 16 6 23 11 7 4 16 6 19 3 2 -3 25 3 49 13 24 11 46 20 49 20
23 3 277 105 355 143 36 18 64 37 63 42 -2 6 -6 10 -10 10 -5 1 -24 6 -43 12
-19 7 -48 14 -65 17 -16 3 -55 11 -85 17 -30 5 -68 12 -85 15 -35 5 -312 14
-317 9z"/>
<path d="M1158 1494 c-21 -7 -38 -10 -38 -7 0 3 -9 -2 -20 -12 -11 -10 -20
-15 -20 -12 0 10 -100 -47 -140 -79 -62 -51 -148 -142 -199 -209 -34 -44 -64
-84 -69 -90 -21 -28 -146 -230 -186 -304 -42 -75 -44 -83 -23 -76 12 3 28 7
35 7 6 1 12 5 12 10 0 5 4 7 9 3 5 -3 12 -1 16 5 4 6 11 8 16 5 5 -4 9 -1 9 6
0 7 3 10 6 6 9 -8 177 79 274 142 93 60 109 73 181 142 27 25 51 44 54 41 3
-3 5 0 5 6 0 7 8 21 18 31 32 36 40 48 62 91 23 46 49 112 56 145 2 11 18 48
34 82 17 34 31 66 31 70 -1 13 -83 11 -123 -3z"/>
<path d="M2135 1343 c3 -21 18 -56 33 -78 26 -39 117 -134 158 -166 31 -24
134 -83 169 -97 17 -6 44 -17 60 -23 17 -7 32 -13 35 -14 3 -1 12 -4 20 -8 30
-12 136 -45 170 -52 19 -4 40 -11 45 -15 6 -4 20 -6 33 -5 12 1 22 -2 22 -6 0
-4 8 -8 18 -7 20 0 62 -8 112 -21 69 -18 131 -28 135 -22 5 9 -149 185 -207
236 -24 22 -64 56 -88 75 -24 19 -49 41 -56 48 -7 6 -16 12 -20 12 -4 0 -15 7
-25 16 -33 30 -179 105 -244 126 -16 5 -86 12 -155 15 -69 2 -141 9 -160 14
-59 15 -63 13 -55 -28z"/>
<path d="M1485 1257 c-110 -80 -189 -254 -211 -462 -7 -75 -3 -430 6 -430 0 0
3 -22 5 -50 2 -27 7 -72 10 -100 4 -27 7 -56 7 -63 2 -25 24 -4 65 64 23 38
47 74 53 81 5 7 10 14 10 17 0 2 17 42 38 88 39 85 76 175 78 193 1 6 3 12 4
15 4 11 31 121 36 150 3 13 9 29 15 36 5 6 6 14 2 17 -3 4 -7 39 -8 79 -2 74
-23 188 -34 188 -6 0 -11 21 -14 63 -1 9 -4 17 -7 17 -7 0 -9 7 -13 67 -1 23
-5 44 -7 47 -3 2 -19 -5 -35 -17z"/>
<path d="M1820 1189 c-28 -101 -12 -236 42 -369 32 -79 151 -276 184 -305 6
-5 24 -28 40 -50 16 -22 31 -42 34 -45 3 -3 34 -39 70 -80 36 -41 81 -92 101
-112 20 -20 34 -40 30 -44 -3 -4 1 -5 9 -2 15 5 15 21 4 148 -6 58 -9 83 -19
140 -4 19 -7 42 -9 50 -9 55 -20 97 -29 108 -5 6 -7 12 -4 12 8 0 -38 132 -69
198 -54 114 -102 173 -210 253 -32 24 -81 65 -108 91 -26 27 -50 48 -52 48 -2
0 -8 -19 -14 -41z"/>
</g>
</svg>
